# xmcd
#
# Track frame offsets:
#	150
#	11471
#	27122
#	42329
#	54235
#	68206
#	82076
#	94081
#	110912
#	124364
#
# Disc length: 1803 seconds
#
# Revision: 1
# Processed by: cddbd v1.5.2PL0 Copyright (c) Steve Scherf et al.
# Submitted via: audiograbber 1.83.01
#
DISCID=8307090a
DTITLE=Conway Twitty - The Legend
DYEAR=2003
DGENRE=Country
TTITLE0=Hello Darlin'
TTITLE1=Touch the Hand
TTITLE2=Lost Her Love On Our Last Date
TTITLE3=(Lying Here With) Linda On My Mind
TTITLE4=Play the Games That Daddies Play
TTITLE5=Baby's Gone
TTITLE6=I'm Not Through Loving You Yet
TTITLE7=Don't Cry Joni
TTITLE8=Danny Boy
TTITLE9=I Can't Believe She Gives It All to Me
EXTD=
EXTT0=
EXTT1=
EXTT2=
EXTT3=
EXTT4=
EXTT5=
EXTT6=
EXTT7=
EXTT8=
EXTT9=
PLAYORDER=
